<?xml version="1.0" standalone="no"?>
<!DOCTYPE svg PUBLIC "-//W3C//DTD SVG 20010904//EN"
 "http://www.w3.org/TR/2001/REC-SVG-20010904/DTD/svg10.dtd">
<svg version="1.0" xmlns="http://www.w3.org/2000/svg"
 width="500.000000pt" height="500.000000pt" viewBox="0 0 500.000000 500.000000"
 preserveAspectRatio="xMidYMid meet">

<g transform="translate(0.000000,500.000000) scale(0.100000,-0.100000)"
fill="#000000" stroke="none">
<path d="M2310 3879 c-188 -48 -193 -50 -160 -58 25 -7 25 -8 25 -111 0 -58
-4 -122 -8 -142 -8 -38 -8 -38 24 -38 29 0 31 2 25 28 -4 15 -9 77 -12 139
l-6 111 151 -38 151 -38 187 48 c104 26 181 50 173 53 -44 18 -335 87 -363 86
-17 0 -102 -19 -187 -40z"/>
<path d="M2280 3711 l0 -58 54 -12 c29 -6 80 -28 111 -47 l58 -34 37 25 c40
28 137 65 170 65 18 0 20 6 20 53 0 30 -2 56 -5 59 -3 3 -55 -7 -115 -22
l-110 -28 -110 28 -110 28 0 -57z"/>
<path d="M820 2670 l0 -760 190 0 190 0 0 350 0 350 39 0 c100 0 101 -3 101
-385 l0 -315 186 0 185 0 -3 323 -3 322 -27 47 c-31 51 -70 80 -138 99 -45 12
-45 12 -15 19 74 17 132 67 157 137 9 26 13 91 13 203 0 153 -2 169 -23 212
-65 133 -161 158 -604 158 l-248 0 0 -760z m497 475 c21 -23 23 -36 23 -125 0
-55 -5 -110 -11 -123 -14 -30 -48 -47 -94 -47 l-35 0 0 166 0 167 47 -6 c35
-4 53 -12 70 -32z"/>
<path d="M3272 2803 l3 -628 23 -57 c42 -103 113 -172 219 -210 71 -26 279
-37 364 -19 169 35 279 144 308 305 7 39 11 268 11 648 l0 588 -197 -2 -198
-3 -5 -623 c-5 -603 -6 -624 -24 -638 -28 -20 -70 -17 -92 7 -18 20 -19 48
-22 640 l-3 619 -195 0 -195 0 3 -627z"/>
<path d="M1870 2665 l0 -755 165 0 165 0 1 558 c0 306 2 553 4 547 2 -5 38
-246 80 -535 41 -289 78 -535 80 -547 5 -22 9 -23 128 -23 l123 0 54 368 c29
202 65 448 81 547 l27 180 1 -547 1 -548 165 0 165 0 0 755 0 755 -262 -2
-263 -3 -11 -110 c-7 -60 -26 -255 -45 -432 -18 -178 -34 -322 -35 -320 -1 1
-23 187 -49 412 -25 226 -48 420 -51 433 l-4 22 -260 0 -260 0 0 -755z"/>
<path d="M1467 1599 c-51 -39 -27 -119 36 -119 25 0 57 23 57 41 0 5 -7 9 -15
9 -8 0 -15 -4 -15 -9 0 -15 -32 -22 -46 -10 -19 15 -18 53 1 69 13 11 20 11
40 0 29 -16 40 -10 22 12 -21 27 -52 30 -80 7z"/>
<path d="M1830 1613 c-42 -15 -55 -87 -21 -117 23 -21 70 -18 85 6 15 25 -1
34 -24 13 -27 -24 -52 -4 -48 39 3 32 34 49 48 26 4 -7 15 -10 24 -8 14 2 15
6 4 19 -15 20 -46 30 -68 22z"/>
<path d="M3789 1602 c-28 -24 -20 -49 21 -63 16 -6 30 -15 30 -19 0 -17 -19
-21 -39 -8 -25 15 -39 4 -21 -17 25 -31 90 -15 90 22 0 18 -9 28 -35 39 -19 8
-35 19 -35 24 0 13 37 13 45 0 9 -15 25 -12 25 5 0 9 -12 20 -26 25 -32 13
-28 13 -55 -8z"/>
<path d="M1130 1546 c0 -52 3 -66 15 -66 9 0 15 9 15 25 0 14 5 25 10 25 6 0
16 -11 22 -25 6 -14 17 -25 25 -25 16 0 16 5 2 31 -7 15 -7 24 1 34 6 8 10 24
8 37 -3 20 -10 23 -50 26 l-48 3 0 -65z m70 24 c0 -13 -7 -20 -20 -20 -13 0
-20 7 -20 20 0 13 7 20 20 20 13 0 20 -7 20 -20z"/>
<path d="M1290 1545 l0 -65 45 0 c25 0 45 5 45 10 0 6 -13 10 -30 10 -37 0
-41 27 -5 32 14 2 26 8 26 13 0 6 -12 11 -26 13 -36 5 -32 32 5 32 17 0 30 5
30 10 0 6 -20 10 -45 10 l-45 0 0 -65z"/>
<path d="M1635 1567 c14 -24 25 -53 25 -65 0 -13 6 -22 15 -22 9 0 15 9 15 25
0 14 9 44 20 65 17 33 18 40 6 40 -9 0 -22 -12 -30 -27 l-14 -28 -13 28 c-7
15 -20 27 -31 27 -17 0 -17 -3 7 -43z"/>
<path d="M1960 1545 l0 -65 45 0 c49 0 62 17 18 22 -26 3 -28 7 -31 56 -2 37
-7 52 -18 52 -11 0 -14 -15 -14 -65z"/>
<path d="M2110 1545 l0 -65 45 0 c25 0 45 5 45 10 0 6 -13 10 -30 10 -20 0
-30 5 -30 15 0 9 9 15 25 15 16 0 25 6 25 15 0 9 -9 15 -25 15 -16 0 -25 6
-25 15 0 10 10 15 30 15 17 0 30 5 30 10 0 6 -20 10 -45 10 l-45 0 0 -65z"/>
<path d="M2260 1545 l0 -65 35 0 c43 0 75 29 75 68 0 38 -28 62 -73 62 l-37 0
0 -65z m68 33 c18 -18 14 -56 -7 -68 -30 -15 -31 -14 -31 35 0 46 13 58 38 33z"/>
<path d="M2510 1545 c0 -51 3 -65 15 -65 11 0 15 11 16 38 l0 37 16 -37 c8
-21 19 -38 25 -38 5 0 17 17 26 38 l17 37 3 -37 c5 -63 22 -42 22 27 0 79 -20
88 -50 23 l-18 -43 -18 43 c-11 28 -23 42 -36 42 -16 0 -18 -8 -18 -65z"/>
<path d="M2735 1558 c-10 -29 -20 -59 -23 -65 -6 -18 27 -16 34 2 4 8 16 15
29 15 13 0 25 -7 29 -15 3 -8 12 -15 20 -15 12 0 10 12 -7 65 -17 53 -25 65
-42 65 -16 0 -25 -12 -40 -52z m55 -20 c0 -5 -7 -8 -15 -8 -17 0 -18 2 -9 25
5 13 8 14 15 3 5 -7 9 -16 9 -20z"/>
<path d="M2890 1600 c0 -5 9 -10 20 -10 18 0 20 -7 20 -55 0 -42 3 -55 15 -55
12 0 15 13 15 55 0 48 2 55 20 55 11 0 20 5 20 10 0 6 -25 10 -55 10 -30 0
-55 -4 -55 -10z"/>
<path d="M3050 1545 l0 -65 52 0 c52 0 58 15 9 22 -34 4 -38 26 -5 30 39 4 43
28 5 28 -21 0 -31 5 -31 15 0 10 10 15 30 15 17 0 30 5 30 10 0 6 -20 10 -45
10 l-45 0 0 -65z"/>
<path d="M3200 1545 c0 -51 3 -65 15 -65 8 0 15 9 15 19 0 31 16 33 34 6 21
-32 52 -35 35 -4 -8 16 -8 28 0 46 18 40 -1 63 -54 63 l-45 0 0 -65z m70 25
c0 -13 -7 -20 -20 -20 -13 0 -20 7 -20 20 0 13 7 20 20 20 13 0 20 -7 20 -20z"/>
<path d="M3360 1545 c0 -51 3 -65 15 -65 12 0 15 14 15 65 0 51 -3 65 -15 65
-12 0 -15 -14 -15 -65z"/>
<path d="M3472 1552 c-12 -32 -22 -62 -22 -66 0 -13 28 -6 34 9 3 8 17 15 31
15 16 0 25 -6 25 -15 0 -8 7 -15 15 -15 19 0 18 12 -4 75 -12 35 -24 51 -38
53 -16 2 -24 -8 -41 -56z m44 -19 c-11 -11 -19 6 -11 24 8 17 8 17 12 0 3 -10
2 -21 -1 -24z"/>
<path d="M3630 1545 l0 -65 45 0 c25 0 45 5 45 10 0 6 -13 10 -30 10 -30 0
-30 1 -30 55 0 42 -3 55 -15 55 -12 0 -15 -14 -15 -65z"/>
<path d="M2723 1360 c-15 -6 -23 -18 -23 -34 0 -19 8 -27 36 -36 19 -7 33 -17
31 -23 -4 -13 -22 -13 -49 -2 -13 5 -18 2 -18 -8 0 -8 7 -18 16 -21 72 -28
120 40 49 70 -19 8 -35 19 -35 24 0 13 33 13 47 -1 7 -7 13 -7 17 -1 4 6 -4
18 -16 26 -25 18 -25 18 -55 6z"/>
<path d="M1780 1314 c0 -63 13 -84 53 -84 46 0 57 16 57 77 0 40 -4 53 -15 53
-11 0 -15 -12 -15 -49 0 -52 -8 -65 -34 -55 -12 4 -16 20 -16 55 0 37 -4 49
-15 49 -11 0 -15 -12 -15 -46z"/>
<path d="M1950 1295 c0 -51 3 -65 15 -65 10 0 15 11 15 35 0 44 9 44 38 0 36
-56 52 -47 52 30 0 50 -3 65 -14 65 -10 0 -16 -13 -18 -37 l-3 -38 -25 37
c-14 21 -33 38 -42 38 -15 0 -18 -10 -18 -65z"/>
<path d="M2130 1295 c0 -51 3 -65 15 -65 12 0 15 14 15 65 0 51 -3 65 -15 65
-12 0 -15 -14 -15 -65z"/>
<path d="M2233 1295 c18 -55 25 -65 42 -63 15 2 26 20 42 66 21 58 21 62 4 62
-12 0 -22 -14 -32 -47 l-15 -48 -15 45 c-9 25 -23 46 -32 48 -14 3 -13 -5 6
-63z"/>
<path d="M2390 1295 l0 -65 45 0 c25 0 45 5 45 10 0 6 -14 10 -31 10 -24 0
-30 4 -27 18 2 10 14 18 31 20 37 4 35 22 -3 22 -20 0 -30 5 -30 15 0 10 10
15 30 15 17 0 30 5 30 10 0 6 -20 10 -45 10 l-45 0 0 -65z"/>
<path d="M2540 1296 c0 -52 3 -66 15 -66 9 0 15 9 15 25 0 14 5 25 10 25 6 0
16 -11 22 -25 6 -14 17 -25 25 -25 16 0 16 5 2 31 -7 15 -7 24 1 34 6 8 10 24
8 37 -3 20 -10 23 -50 26 l-48 3 0 -65z m70 24 c0 -13 -7 -20 -20 -20 -13 0
-20 7 -20 20 0 13 7 20 20 20 13 0 20 -7 20 -20z"/>
<path d="M2860 1295 c0 -51 3 -65 15 -65 12 0 15 14 15 65 0 51 -3 65 -15 65
-12 0 -15 -14 -15 -65z"/>
<path d="M2940 1350 c0 -5 9 -10 20 -10 18 0 20 -7 20 -55 0 -42 3 -55 15 -55
12 0 15 13 15 55 0 48 2 55 20 55 11 0 20 5 20 10 0 6 -25 10 -55 10 -30 0
-55 -4 -55 -10z"/>
<path d="M3110 1355 c0 -3 9 -23 20 -45 11 -22 20 -48 20 -60 0 -11 7 -20 15
-20 9 0 15 9 15 25 0 13 9 39 20 57 23 38 25 48 7 48 -7 0 -20 -12 -29 -27
l-16 -27 -13 27 c-10 23 -39 39 -39 22z"/>
</g>
</svg>
